<svg id="Capa_1" data-name="Capa 1" xmlns="http://www.w3.org/2000/svg" width="69.5" height="4.99" viewBox="0 0 69.5 4.99"><defs><style>.cls-1{fill:#fff;}</style></defs><path class="cls-1" d="M7.73,39l-1,1.25H2.5V35.37H4V39Z" transform="translate(-2.5 -35.29)"/><path class="cls-1" d="M14.5,38.09c0,1.46-1,2.19-3,2.19a7.22,7.22,0,0,1-1.5-.14,3,3,0,0,1-1-.41,1.62,1.62,0,0,1-.6-.68,2.25,2.25,0,0,1-.19-1V35.37H9.65v2.72a1.42,1.42,0,0,0,.07.45.6.6,0,0,0,.28.29,1.57,1.57,0,0,0,.55.16,8.23,8.23,0,0,0,.94,0,3.85,3.85,0,0,0,.73-.05,1.3,1.3,0,0,0,.46-.16.72.72,0,0,0,.25-.3,1.11,1.11,0,0,0,.07-.43V35.37h1.5Z" transform="translate(-2.5 -35.29)"/><path class="cls-1" d="M16.86,40.2H15.37V35.37h1.49Z" transform="translate(-2.5 -35.29)"/><path class="cls-1" d="M22.27,37.29a2.32,2.32,0,0,1,1.35.33,1.14,1.14,0,0,1,.46,1,1.76,1.76,0,0,1-.11.66,1.21,1.21,0,0,1-.37.5,1.79,1.79,0,0,1-.65.31,3.62,3.62,0,0,1-.94.11h-4.5l1-1.25h3.66a.67.67,0,0,0,.39-.08.29.29,0,0,0,.12-.27.32.32,0,0,0-.12-.27.76.76,0,0,0-.39-.08H19.5a2.8,2.8,0,0,1-.81-.1,1.47,1.47,0,0,1-.56-.28,1.06,1.06,0,0,1-.33-.43,1.35,1.35,0,0,1-.11-.57,1.56,1.56,0,0,1,.12-.62,1.26,1.26,0,0,1,.36-.47,1.86,1.86,0,0,1,.65-.3,3.23,3.23,0,0,1,.94-.11H24l-1,1.25H19.64a.74.74,0,0,0-.38.08.25.25,0,0,0-.13.26.27.27,0,0,0,.13.26.75.75,0,0,0,.38.07Z" transform="translate(-2.5 -35.29)"/><path class="cls-1" d="M29.56,40.2l.9-1.25h1.66l.41,0c-.07-.09-.14-.2-.23-.33L32,38.27,31.17,37,28.91,40.2H27.14l3.1-4.37a1.52,1.52,0,0,1,.38-.38,1,1,0,0,1,.58-.16,1,1,0,0,1,.57.15,1.61,1.61,0,0,1,.39.39l3,4.37Z" transform="translate(-2.5 -35.29)"/><path class="cls-1" d="M38,37.18H41v3H37.72A3.62,3.62,0,0,1,36.56,40a2.94,2.94,0,0,1-.92-.52,2.43,2.43,0,0,1-.61-.78,2.27,2.27,0,0,1-.22-1,2.18,2.18,0,0,1,.22-1,2.32,2.32,0,0,1,.61-.75,2.68,2.68,0,0,1,.92-.48,3.62,3.62,0,0,1,1.16-.17h3.46l-1,1.25H37.72a1.69,1.69,0,0,0-.56.09,1.31,1.31,0,0,0-.45.25,1,1,0,0,0-.3.37,1.1,1.1,0,0,0,0,.94,1.07,1.07,0,0,0,.3.37,1.37,1.37,0,0,0,.45.23,1.71,1.71,0,0,0,.57.08h1.83v-.7h-2.5Z" transform="translate(-2.5 -35.29)"/><path class="cls-1" d="M48.17,38.09c0,1.46-1,2.19-3,2.19a7.15,7.15,0,0,1-1.5-.14,3,3,0,0,1-1-.41,1.76,1.76,0,0,1-.6-.68,2.25,2.25,0,0,1-.19-1V35.37h1.49v2.72a1.18,1.18,0,0,0,.07.45.62.62,0,0,0,.27.29,1.64,1.64,0,0,0,.56.16,8,8,0,0,0,.94,0,3.68,3.68,0,0,0,.72-.05,1.24,1.24,0,0,0,.46-.16.65.65,0,0,0,.25-.3,1.1,1.1,0,0,0,.08-.43V35.37h1.5Z" transform="translate(-2.5 -35.29)"/><path class="cls-1" d="M50.53,40.2H49V35.37h1.5Z" transform="translate(-2.5 -35.29)"/><path class="cls-1" d="M56.69,39l-1,1.25H51.46V35.37H53V39Z" transform="translate(-2.5 -35.29)"/><path class="cls-1" d="M59,40.2,59.9,39h1.66L62,39c-.07-.09-.14-.2-.23-.33l-.26-.37L60.61,37,58.35,40.2H56.58l3.1-4.37a1.52,1.52,0,0,1,.38-.38,1,1,0,0,1,.58-.16,1,1,0,0,1,.57.15,1.61,1.61,0,0,1,.39.39l3,4.37Z" transform="translate(-2.5 -35.29)"/><path class="cls-1" d="M72,40.2H70l-1.08-1.28H66.63V40.2h-1.5V37.73h4.21a1.06,1.06,0,0,0,.58-.15.44.44,0,0,0,.24-.39.48.48,0,0,0-.22-.43,1.11,1.11,0,0,0-.6-.14H65.13l1-1.25h3.1a5.15,5.15,0,0,1,.86.07,2.61,2.61,0,0,1,.8.27,1.67,1.67,0,0,1,.59.53,1.42,1.42,0,0,1,.24.85,1.61,1.61,0,0,1-.09.54,1.41,1.41,0,0,1-.25.45,1.32,1.32,0,0,1-.4.34,1.46,1.46,0,0,1-.53.2,2.78,2.78,0,0,1,.28.24l.4.4Z" transform="translate(-2.5 -35.29)"/></svg>