<svg id="Capa_5" data-name="Capa 5" xmlns="http://www.w3.org/2000/svg" xmlns:xlink="http://www.w3.org/1999/xlink" viewBox="0 0 300 169"><defs><style>.cls-1{fill:none;}.cls-2{clip-path:url(#clip-path);}.cls-3{fill:#575756;}.cls-4{fill:#545353;}.cls-5{fill:#50504f;}.cls-6{fill:#4d4d4c;}.cls-7{fill:#4a4a49;}.cls-8{fill:#474746;}.cls-9{fill:#444443;}.cls-10{fill:#414140;}.cls-11{fill:#3f3f3e;}.cls-12{fill:#3d3c3c;}.cls-13{fill:#3b3a39;}.cls-14{fill:#383837;}.cls-15{fill:#373635;}.cls-16{fill:#353434;}.cls-17{fill:#333332;}.cls-18{fill:#323130;}.cls-19{fill:#30302f;}.cls-20{fill:#2f2e2d;}.cls-21{fill:#2d2d2c;}.cls-22{fill:#2c2c2b;}.cls-23{fill:#2b2b2a;}.cls-24{fill:#2a2a29;}.cls-25{fill:#292928;}.cls-26{fill:#292827;}.cls-27{fill:#282827;}.cls-28{fill:#272726;}.cls-29{fill:#262625;}.cls-30{fill:#262524;}.cls-31{fill:#252524;}.cls-32{fill:#252523;}.cls-33{fill:#252423;}.cls-34{fill:#242423;}.cls-35{fill:#272725;}.cls-36{fill:#2a2a28;}.cls-37{fill:#2f2f2e;}.cls-38{fill:#323231;}.cls-39{fill:#343433;}.cls-40{fill:#393938;}.cls-41{fill:#3c3c3b;}.cls-42{fill:#424241;}.cls-43{fill:#464545;}.cls-44{fill:#4a4948;}.cls-45{fill:#4e4e4d;}.cls-46{fill:#525251;}.cls-47{fill:#fff;}</style><clipPath id="clip-path" transform="translate(0 -0.52)"><rect class="cls-1" y="0.52" width="300" height="169"/></clipPath></defs><g class="cls-2"><polygon class="cls-3" points="300 4.31 297.64 0 300 0 300 4.31"/><polygon class="cls-3" points="300 12 293.42 0 297.64 0 300 4.31 300 12"/><polygon class="cls-4" points="300 19.69 289.19 0 293.42 0 300 12 300 19.69"/><polygon class="cls-5" points="300 27.38 284.97 0 289.19 0 300 19.69 300 27.38"/><polygon class="cls-6" points="300 35.07 280.75 0 284.97 0 300 27.38 300 35.07"/><polygon class="cls-7" points="300 42.76 276.53 0 280.75 0 300 35.07 300 42.76"/><polygon class="cls-8" points="300 50.45 272.31 0 276.53 0 300 42.76 300 50.45"/><polygon class="cls-9" points="300 58.13 268.09 0 272.31 0 300 50.45 300 58.13"/><polygon class="cls-10" points="300 65.83 263.87 0 268.09 0 300 58.13 300 65.83"/><polygon class="cls-11" points="300 73.52 259.64 0 263.87 0 300 65.83 300 73.52"/><polygon class="cls-12" points="300 81.2 255.42 0 259.64 0 300 73.52 300 81.2"/><polygon class="cls-13" points="300 88.89 251.2 0 255.42 0 300 81.2 300 88.89"/><polygon class="cls-14" points="300 96.58 246.98 0 251.2 0 300 88.89 300 96.58"/><polygon class="cls-15" points="300 104.28 242.76 0 246.98 0 300 96.58 300 104.28"/><polygon class="cls-16" points="300 111.97 238.54 0 242.76 0 300 104.28 300 111.97"/><polygon class="cls-17" points="300 119.66 234.31 0 238.54 0 300 111.97 300 119.66"/><polygon class="cls-18" points="300 127.34 230.09 0 234.31 0 300 119.66 300 127.34"/><polygon class="cls-19" points="300 135.03 225.87 0 230.09 0 300 127.34 300 135.03"/><polygon class="cls-20" points="300 142.72 221.65 0 225.87 0 300 135.03 300 142.72"/><polygon class="cls-21" points="300 150.41 217.43 0 221.65 0 300 142.72 300 150.41"/><polygon class="cls-22" points="300 158.1 213.21 0 217.43 0 300 150.41 300 158.1"/><polygon class="cls-23" points="300 165.79 208.99 0 213.21 0 300 158.1 300 165.79"/><polygon class="cls-24" points="297.54 169 204.77 0 208.99 0 300 165.79 300 169 297.54 169"/><polygon class="cls-25" points="293.32 169 200.54 0 204.77 0 297.54 169 293.32 169"/><polygon class="cls-26" points="289.1 169 196.32 0 200.54 0 293.32 169 289.1 169"/><polygon class="cls-27" points="284.87 169 192.1 0 196.32 0 289.1 169 284.87 169"/><polygon class="cls-28" points="280.65 169 187.88 0 192.1 0 284.87 169 280.65 169"/><polygon class="cls-28" points="276.43 169 183.66 0 187.88 0 280.65 169 276.43 169"/><polygon class="cls-29" points="272.21 169 179.44 0 183.66 0 276.43 169 272.21 169"/><polygon class="cls-29" points="267.99 169 175.22 0 179.44 0 272.21 169 267.99 169"/><polygon class="cls-30" points="263.77 169 171 0 175.22 0 267.99 169 263.77 169"/><polygon class="cls-31" points="259.55 169 166.77 0 171 0 263.77 169 259.55 169"/><polygon class="cls-31" points="255.32 169 162.55 0 166.77 0 259.55 169 255.32 169"/><polygon class="cls-32" points="251.1 169 158.33 0 162.55 0 255.32 169 251.1 169"/><polygon class="cls-33" points="246.88 169 154.11 0 158.33 0 251.1 169 246.88 169"/><polygon class="cls-33" points="242.66 169 149.89 0 154.11 0 246.88 169 242.66 169"/><polygon class="cls-34" points="238.44 169 145.67 0 149.89 0 242.66 169 238.44 169"/><polygon class="cls-34" points="234.22 169 141.44 0 145.67 0 238.44 169 234.22 169"/><polygon class="cls-34" points="230 169 137.22 0 141.44 0 234.22 169 230 169"/><polygon class="cls-34" points="225.78 169 133 0 137.22 0 230 169 225.78 169"/><polygon class="cls-34" points="221.55 169 128.78 0 133 0 225.78 169 221.55 169"/><polygon class="cls-34" points="217.33 169 124.56 0 128.78 0 221.55 169 217.33 169"/><polygon class="cls-34" points="213.11 169 120.34 0 124.56 0 217.33 169 213.11 169"/><polygon class="cls-34" points="208.89 169 116.12 0 120.34 0 213.11 169 208.89 169"/><polygon class="cls-34" points="204.67 169 111.89 0 116.12 0 208.89 169 204.67 169"/><polygon class="cls-34" points="200.45 169 107.67 0 111.89 0 204.67 169 200.45 169"/><polygon class="cls-34" points="196.22 169 103.45 0 107.67 0 200.45 169 196.22 169"/><polygon class="cls-34" points="192 169 99.23 0 103.45 0 196.22 169 192 169"/><polygon class="cls-34" points="187.78 169 95.01 0 99.23 0 192 169 187.78 169"/><polygon class="cls-34" points="183.56 169 90.79 0 95.01 0 187.78 169 183.56 169"/><polygon class="cls-34" points="179.34 169 86.57 0 90.79 0 183.56 169 179.34 169"/><polygon class="cls-34" points="175.12 169 82.35 0 86.57 0 179.34 169 175.12 169"/><polygon class="cls-34" points="170.9 169 78.12 0 82.35 0 175.12 169 170.9 169"/><polygon class="cls-34" points="166.68 169 73.9 0 78.12 0 170.9 169 166.68 169"/><polygon class="cls-34" points="162.45 169 69.68 0 73.9 0 166.68 169 162.45 169"/><polygon class="cls-34" points="158.23 169 65.46 0 69.68 0 162.45 169 158.23 169"/><polygon class="cls-34" points="154.01 169 61.24 0 65.46 0 158.23 169 154.01 169"/><polygon class="cls-34" points="149.79 169 57.02 0 61.24 0 154.01 169 149.79 169"/><polygon class="cls-34" points="145.57 169 52.8 0 57.02 0 149.79 169 145.57 169"/><polygon class="cls-34" points="141.35 169 48.58 0 52.8 0 145.57 169 141.35 169"/><polygon class="cls-34" points="137.13 169 44.35 0 48.58 0 141.35 169 137.13 169"/><polygon class="cls-34" points="132.91 169 40.13 0 44.35 0 137.13 169 132.91 169"/><polygon class="cls-34" points="128.68 169 35.91 0 40.13 0 132.91 169 128.68 169"/><polygon class="cls-33" points="124.46 169 31.69 0 35.91 0 128.68 169 124.46 169"/><polygon class="cls-33" points="120.24 169 27.47 0 31.69 0 124.46 169 120.24 169"/><polygon class="cls-32" points="116.02 169 23.25 0 27.47 0 120.24 169 116.02 169"/><polygon class="cls-31" points="111.8 169 19.02 0 23.25 0 116.02 169 111.8 169"/><polygon class="cls-31" points="107.58 169 14.8 0 19.02 0 111.8 169 107.58 169"/><polygon class="cls-30" points="103.36 169 10.58 0 14.8 0 107.58 169 103.36 169"/><polygon class="cls-29" points="99.13 169 6.36 0 10.58 0 103.36 169 99.13 169"/><polygon class="cls-29" points="94.91 169 2.14 0 6.36 0 99.13 169 94.91 169"/><polygon class="cls-35" points="90.69 169 0 3.79 0 0 2.14 0 94.91 169 90.69 169"/><polygon class="cls-28" points="86.47 169 0 11.48 0 3.79 90.69 169 86.47 169"/><polygon class="cls-27" points="82.25 169 0 19.17 0 11.48 86.47 169 82.25 169"/><polygon class="cls-25" points="78.03 169 0 26.86 0 19.17 82.25 169 78.03 169"/><polygon class="cls-36" points="73.81 169 0 34.55 0 26.86 78.03 169 73.81 169"/><polygon class="cls-23" points="69.58 169 0 42.24 0 34.55 73.81 169 69.58 169"/><polygon class="cls-22" points="65.36 169 0 49.93 0 42.24 69.58 169 65.36 169"/><polygon class="cls-21" points="61.14 169 0 57.62 0 49.93 65.36 169 61.14 169"/><polygon class="cls-37" points="56.92 169 0 65.31 0 57.62 61.14 169 56.92 169"/><polygon class="cls-19" points="52.7 169 0 73 0 65.31 56.92 169 52.7 169"/><polygon class="cls-38" points="48.48 169 0 80.69 0 73 52.7 169 48.48 169"/><polygon class="cls-39" points="44.26 169 0 88.38 0 80.69 48.48 169 44.26 169"/><polygon class="cls-15" points="40.03 169 0 96.07 0 88.38 44.26 169 40.03 169"/><polygon class="cls-40" points="35.81 169 0 103.76 0 96.07 40.03 169 35.81 169"/><polygon class="cls-41" points="31.59 169 0 111.45 0 103.76 35.81 169 31.59 169"/><polygon class="cls-11" points="27.37 169 0 119.14 0 111.45 31.59 169 27.37 169"/><polygon class="cls-42" points="23.15 169 0 126.83 0 119.14 27.37 169 23.15 169"/><polygon class="cls-43" points="18.93 169 0 134.52 0 126.83 23.15 169 18.93 169"/><polygon class="cls-44" points="14.71 169 0 142.21 0 134.52 18.93 169 14.71 169"/><polygon class="cls-45" points="10.48 169 0 149.9 0 142.21 14.71 169 10.48 169"/><polygon class="cls-46" points="6.26 169 0 157.59 0 149.9 10.48 169 6.26 169"/><polygon class="cls-3" points="2.04 169 0 165.28 0 157.59 6.26 169 2.04 169"/><polygon class="cls-3" points="0 165.28 2.04 169 0 169 0 165.28"/></g><path class="cls-47" d="M245.24,8.08h1l-.82,4.22h2.16l-.18.89h-3.16Z" transform="translate(0 -0.52)"/><path class="cls-47" d="M249.89,13.29a1.76,1.76,0,0,1-1.14-.34,1,1,0,0,1-.31-.42,1.58,1.58,0,0,1-.1-.55c0-.09,0-.19,0-.31a1.64,1.64,0,0,1,0-.18.81.81,0,0,1,0-.19l.63-3.22h1l-.68,3.48v0a1.2,1.2,0,0,0,0,.24.54.54,0,0,0,.16.42.58.58,0,0,0,.45.16.79.79,0,0,0,.58-.21,1.17,1.17,0,0,0,.31-.63l.68-3.48h1l-.63,3.22c0,.2-.08.37-.12.52a3.93,3.93,0,0,1-.14.41,1.62,1.62,0,0,1-1,.92A2.14,2.14,0,0,1,249.89,13.29Z" transform="translate(0 -0.52)"/><path class="cls-47" d="M252.67,12.3h1L254.33,9h-1l.18-.89h3l-.18.89h-1l-.65,3.33h1l-.18.89h-3Z" transform="translate(0 -0.52)"/><path class="cls-47" d="M258.22,13.29a2.56,2.56,0,0,1-.39,0l-.38-.06a6,6,0,0,1-.82-.27l.2-1a2.37,2.37,0,0,0,.7.42,1.75,1.75,0,0,0,.35.11,1.55,1.55,0,0,0,.37,0,1.18,1.18,0,0,0,.72-.2.64.64,0,0,0,.26-.53.6.6,0,0,0-.12-.38.83.83,0,0,0-.36-.25l-.4-.17a5.7,5.7,0,0,1-.55-.27,1.24,1.24,0,0,1-.32-.27.85.85,0,0,1-.16-.28,1.5,1.5,0,0,1-.05-.4,1.58,1.58,0,0,1,.15-.71,1.48,1.48,0,0,1,.4-.52,2,2,0,0,1,.63-.36,2.53,2.53,0,0,1,.8-.12,3.21,3.21,0,0,1,1.33.28l-.2,1a1.61,1.61,0,0,0-.54-.32l-.33-.08-.34,0a1.22,1.22,0,0,0-.4,0,.77.77,0,0,0-.27.14.82.82,0,0,0-.2.22.6.6,0,0,0-.06.24c0,.22.21.43.63.61h0l.4.17a1.79,1.79,0,0,1,.73.53,1.31,1.31,0,0,1,.23.78,1.8,1.8,0,0,1-.13.69,1.5,1.5,0,0,1-.42.56,1.78,1.78,0,0,1-.64.34A2.74,2.74,0,0,1,258.22,13.29Z" transform="translate(0 -0.52)"/><path class="cls-47" d="M267,8.08h1.23l.38,5.11h-1l0-1.27h-1.36l-.56,1.27h-1Zm.53,3L267.5,9l-.9,2.07Z" transform="translate(0 -0.52)"/><path class="cls-47" d="M271.35,13.29a1.89,1.89,0,0,1-.75-.14,1.42,1.42,0,0,1-.54-.36,1.62,1.62,0,0,1-.34-.62,2.74,2.74,0,0,1-.11-.79,4.41,4.41,0,0,1,.06-.7,4.24,4.24,0,0,1,.19-.74,3.76,3.76,0,0,1,.27-.62,2.8,2.8,0,0,1,.39-.56,2.61,2.61,0,0,1,.34-.32,2.3,2.3,0,0,1,.43-.25,2.4,2.4,0,0,1,1-.2,2.57,2.57,0,0,1,.55.06l.25.07.28.12-.23,1.12a1.13,1.13,0,0,0-.92-.47,1,1,0,0,0-.25,0l-.21.07a1.31,1.31,0,0,0-.4.3,1.15,1.15,0,0,0-.14.17l-.12.2c0,.07-.07.14-.11.22a2.56,2.56,0,0,0-.09.26,3.89,3.89,0,0,0-.17.65,3.25,3.25,0,0,0-.06.57,1.53,1.53,0,0,0,.06.47.94.94,0,0,0,.16.3.64.64,0,0,0,.27.2.81.81,0,0,0,.35.07.85.85,0,0,0,.23,0l.08,0a.21.21,0,0,0,.1-.06l.2-1h-.71l.17-.85h1.57l-.47,2.42a1.71,1.71,0,0,1-.58.32A2.46,2.46,0,0,1,271.35,13.29Z" transform="translate(0 -0.52)"/><path class="cls-47" d="M275.17,13.29A1.76,1.76,0,0,1,274,13a1,1,0,0,1-.3-.42,1.38,1.38,0,0,1-.1-.55c0-.09,0-.19,0-.31s0-.14,0-.18,0-.11,0-.19l.63-3.22h1l-.67,3.48v0c0,.09,0,.18,0,.24a.57.57,0,0,0,.15.42.61.61,0,0,0,.46.16.81.81,0,0,0,.58-.21,1.1,1.1,0,0,0,.3-.63l.69-3.48h1l-.63,3.22c0,.2-.08.37-.11.52a2.48,2.48,0,0,1-.15.41,1.53,1.53,0,0,1-.35.54,1.8,1.8,0,0,1-.61.38A2.16,2.16,0,0,1,275.17,13.29Z" transform="translate(0 -0.52)"/><path class="cls-47" d="M278,12.3h1L279.61,9h-1l.17-.89h3l-.17.89h-1L280,12.3h1l-.18.89h-3Z" transform="translate(0 -0.52)"/><path class="cls-47" d="M283.17,8.08h1l-.82,4.22h2.16l-.18.89h-3.16Z" transform="translate(0 -0.52)"/><path class="cls-47" d="M288.11,8.08h1.23l.38,5.11h-1l0-1.27h-1.37l-.56,1.27h-1Zm.53,3L288.57,9l-.9,2.07Z" transform="translate(0 -0.52)"/><path class="cls-47" d="M291.34,8.08h1.4a1.92,1.92,0,0,1,1.18.3,1,1,0,0,1,.28.37,1.52,1.52,0,0,1,.1.56,1.47,1.47,0,0,1-.34,1,1.41,1.41,0,0,1-.95.46.51.51,0,0,1,.32.15,1,1,0,0,1,.21.42l.56,1.84h-1l-.36-1.29,0-.09a1.24,1.24,0,0,0-.23-.49.39.39,0,0,0-.31-.15h-.39l-.4,2h-1Zm1,2.24a1,1,0,0,0,.7-.22.64.64,0,0,0,.18-.27,1,1,0,0,0,.06-.35.5.5,0,0,0-.16-.42.71.71,0,0,0-.47-.13h-.45l-.28,1.39Z" transform="translate(0 -0.52)"/><path class="cls-47" d="M119.28,90.28V70.8H122V90.28Zm1.61-9.57V79.36h5.71v1.35Zm.94-.77V78.69h3.29a3.78,3.78,0,0,0,2.41-.69,2.39,2.39,0,0,0,.85-2,2.28,2.28,0,0,0-.9-1.94,4.16,4.16,0,0,0-2.55-.67h-3.05l-.33-2.61h3.51a7.21,7.21,0,0,1,4.59,1.29,4.4,4.4,0,0,1,1.61,3.65,3.59,3.59,0,0,1-1.53,3.11,7.45,7.45,0,0,1-4.36,1.09Zm0,10.34v-2.6h4.11a4.28,4.28,0,0,0,2.81-.83,3.23,3.23,0,0,0,0-4.71,4.6,4.6,0,0,0-3-.84h-3.87l-.33-1.25h4.89A7.26,7.26,0,0,1,131,81.32a4.34,4.34,0,0,1,1.62,3.61,5.08,5.08,0,0,1-1.54,3.95,6.23,6.23,0,0,1-4.36,1.4Z" transform="translate(0 -0.52)"/><path class="cls-47" d="M126.74,90.53H119v-20h6a7.47,7.47,0,0,1,4.74,1.34,4.64,4.64,0,0,1,1.71,3.85,3.82,3.82,0,0,1-1.64,3.31,5.72,5.72,0,0,1-1.9.85,6.37,6.37,0,0,1,3.2,1.23,4.56,4.56,0,0,1,1.72,3.8,5.35,5.35,0,0,1-1.62,4.14A6.53,6.53,0,0,1,126.74,90.53Zm-4.47-.5h4.47a6.05,6.05,0,0,0,4.19-1.33,4.85,4.85,0,0,0,1.46-3.77,4,4,0,0,0-1.53-3.41,6.68,6.68,0,0,0-4-1.21V81h-4.58v.09h3.48a4.85,4.85,0,0,1,3.12.9A3.13,3.13,0,0,1,130,84.52,3.09,3.09,0,0,1,128.91,87a4.54,4.54,0,0,1-3,.89h-3.67Zm-2.74,0h2v-2.6h.19V81.55h-.08l-.16-.59h-.89V79.11h.94v-.67h.19V73.66h-.11l-.33-2.61h-1.8Zm2.74-2.6h3.67a4,4,0,0,0,2.65-.78,2.57,2.57,0,0,0,.91-2.13,2.66,2.66,0,0,0-.94-2.19,4.41,4.41,0,0,0-2.81-.78h-3.48Zm0-7h4.08V80.3h-4.08Zm-1.13,0h.26l-.17-.66h.35v-.19h-.44Zm1.13-.77h3.1c.34,0,.67,0,1,0v0h-4.08Zm0-.58h4.58v.49a5.85,5.85,0,0,0,2.73-1,3.29,3.29,0,0,0,1.43-2.9,4.12,4.12,0,0,0-1.52-3.46,7.06,7.06,0,0,0-4.43-1.23h-2.79v2.11h2.66a4.44,4.44,0,0,1,2.7.72,2.52,2.52,0,0,1,1,2.14,2.64,2.64,0,0,1-.95,2.17,3.94,3.94,0,0,1-2.56.75h-2.85Zm0-.67h2.85a3.47,3.47,0,0,0,2.25-.64,2.14,2.14,0,0,0,.76-1.78,2,2,0,0,0-.8-1.74,4,4,0,0,0-2.4-.62h-2.66Z" transform="translate(0 -0.52)"/><path class="cls-47" d="M135.74,90.28V70.8h2.74V90.28Zm0,0v-2.6h12.89v2.6Z" transform="translate(0 -0.52)"/><path class="cls-47" d="M148.88,90.53H135.49v-20h3.24V87.43h10.15ZM138.73,90h9.65v-2.1h-9.65ZM136,90h2.24v-2.1H136Zm0-2.6h2.24V71.05H136Z" transform="translate(0 -0.52)"/><path class="cls-47" d="M158.23,90.56q-7.18,0-7.19-9.88,0-10.16,7.19-10.15t7.19,10.15Q165.42,90.55,158.23,90.56Zm0-2.53q4.31,0,4.31-7.35c0-5.08-1.44-7.63-4.31-7.63s-4.31,2.55-4.31,7.63Q153.92,88,158.23,88Z" transform="translate(0 -0.52)"/><path class="cls-47" d="M158.23,90.81c-4.94,0-7.44-3.41-7.44-10.13,0-6.9,2.5-10.4,7.44-10.4s7.44,3.5,7.44,10.4C165.67,87.4,163.17,90.81,158.23,90.81Zm0-20c-4.67,0-6.94,3.24-6.94,9.9,0,6.48,2.27,9.63,6.94,9.63s6.94-3.15,6.94-9.63C165.17,74,162.9,70.78,158.23,70.78Zm0,17.5c-3,0-4.56-2.56-4.56-7.6,0-5.23,1.54-7.88,4.56-7.88s4.56,2.65,4.56,7.88C162.79,85.72,161.25,88.28,158.23,88.28Zm0-15c-2.73,0-4.06,2.42-4.06,7.38,0,4.78,1.33,7.1,4.06,7.1s4.06-2.32,4.06-7.1C162.29,75.72,161,73.3,158.23,73.3Z" transform="translate(0 -0.52)"/><path class="cls-47" d="M176.09,90.56q-4.36,0-6.54-2.51c-1.46-1.68-2.18-4.19-2.18-7.53q0-4.77,2.26-7.38A8,8,0,0,1,176,70.53a9.19,9.19,0,0,1,3.58.64,4.61,4.61,0,0,1,2.26,1.8l-2,2a4.38,4.38,0,0,0-1.59-1.44,4.24,4.24,0,0,0-2.05-.51,5.19,5.19,0,0,0-4.3,1.92,8.4,8.4,0,0,0-1.54,5.41q0,3.83,1.54,5.74A5.53,5.53,0,0,0,176.42,88a9.36,9.36,0,0,0,2.3-.25l1.62-.43,1.07,2.38c-.38.12-1.06.29-2,.5A15,15,0,0,1,176.09,90.56Zm-1.26-7.41V80.54h6.5v2.61Zm4,6.58V80.54h2.61v9.19Z" transform="translate(0 -0.52)"/><path class="cls-47" d="M176.09,90.81c-3,0-5.24-.88-6.73-2.6s-2.24-4.3-2.24-7.69c0-3.22.78-5.76,2.32-7.54a8.22,8.22,0,0,1,6.54-2.7,9.43,9.43,0,0,1,3.67.66,4.89,4.89,0,0,1,2.38,1.9l.11.17-2.4,2.38-.17-.25a4.3,4.3,0,0,0-1.49-1.36,4.07,4.07,0,0,0-1.94-.48A5,5,0,0,0,172,75.12a8.3,8.3,0,0,0-1.48,5.26A8.85,8.85,0,0,0,172,86a5.31,5.31,0,0,0,4.39,1.82,9.06,9.06,0,0,0,2.13-.22V83.4h-4V80.29h7.08v9.39l.09.21-.09,0V90h-.21c-.4.12-1.07.29-2,.5A15.39,15.39,0,0,1,176.09,90.81Zm-.11-20a7.73,7.73,0,0,0-6.16,2.53c-1.46,1.68-2.2,4.11-2.2,7.21,0,3.26.71,5.74,2.11,7.36s3.54,2.43,6.36,2.43a15,15,0,0,0,3.24-.32h-.78V88.07a9.85,9.85,0,0,1-2.13.21,5.77,5.77,0,0,1-4.78-2,9.32,9.32,0,0,1-1.59-5.89,8.77,8.77,0,0,1,1.59-5.57,5.47,5.47,0,0,1,4.5-2,4.53,4.53,0,0,1,2.17.54,4.6,4.6,0,0,1,1.5,1.28l1.69-1.68a4.54,4.54,0,0,0-2-1.54A9.09,9.09,0,0,0,176,70.78Zm3.07,18.7h2l-.83-1.83-1.15.3Zm1.43-2.43.68,1.51V83.4h-2.11v4l1.22-.32Zm-1.43-4.15h2V80.79h-2Zm-4,0h3.47V80.79h-3.47Z" transform="translate(0 -0.52)"/><polygon class="cls-47" points="105.86 128.22 62.15 128.22 62.15 40.78 105.86 40.78 105.86 42.78 64.15 42.78 64.15 126.22 105.86 126.22 105.86 128.22"/><polygon class="cls-47" points="237.85 128.22 194.14 128.22 194.14 126.22 235.85 126.22 235.85 42.78 194.14 42.78 194.14 40.78 237.85 40.78 237.85 128.22"/></svg>