<svg id="Capa_1" data-name="Capa 1" xmlns="http://www.w3.org/2000/svg" viewBox="0 0 69.12 52.72"><defs><style>.cls-1{fill:#fff;}</style></defs><g id="LETRAS"><path class="cls-1" d="M8.15,54.79,7.18,56H2.94v-4.8H4.43v3.56Z" transform="translate(-2.94 -10.45)"/><path class="cls-1" d="M14.88,53.93c0,1.45-1,2.18-3,2.18a7.22,7.22,0,0,1-1.5-.14,3,3,0,0,1-1-.41,1.6,1.6,0,0,1-.59-.68,2.15,2.15,0,0,1-.19-1v-2.7h1.48v2.7a1.18,1.18,0,0,0,.07.45.62.62,0,0,0,.27.29,1.57,1.57,0,0,0,.55.16,8,8,0,0,0,.94,0,3.63,3.63,0,0,0,.71,0,1.17,1.17,0,0,0,.46-.16.65.65,0,0,0,.25-.3,1.1,1.1,0,0,0,.08-.43v-2.7h1.49Z" transform="translate(-2.94 -10.45)"/><path class="cls-1" d="M17.23,56H15.74v-4.8h1.49Z" transform="translate(-2.94 -10.45)"/><path class="cls-1" d="M22.61,53.14a2.31,2.31,0,0,1,1.34.33,1.15,1.15,0,0,1,.46,1,1.76,1.76,0,0,1-.12.66,1.16,1.16,0,0,1-.36.49,1.64,1.64,0,0,1-.65.31,3.59,3.59,0,0,1-.93.11H17.87l1-1.24h3.63a.67.67,0,0,0,.39-.08.29.29,0,0,0,.12-.27.29.29,0,0,0-.12-.26.67.67,0,0,0-.39-.08H19.85A3.2,3.2,0,0,1,19,54a1.73,1.73,0,0,1-.56-.28,1.31,1.31,0,0,1-.33-.44,1.61,1.61,0,0,1,0-1.17,1.13,1.13,0,0,1,.36-.48,2.24,2.24,0,0,1,.64-.3,3.66,3.66,0,0,1,.94-.1h4.17l-1,1.24H20a.74.74,0,0,0-.38.08.25.25,0,0,0-.13.26.27.27,0,0,0,.13.26.75.75,0,0,0,.38.07Z" transform="translate(-2.94 -10.45)"/><path class="cls-1" d="M29.85,56l.9-1.24H32.4l.41,0-.24-.33c-.08-.13-.17-.25-.25-.37l-.86-1.27L29.2,56H27.44l3.08-4.34a1.76,1.76,0,0,1,.39-.38,1,1,0,0,1,.58-.16,1,1,0,0,1,.56.15,1.29,1.29,0,0,1,.38.39l3,4.34Z" transform="translate(-2.94 -10.45)"/><path class="cls-1" d="M38.19,53h3.08v3H38a3.36,3.36,0,0,1-1.16-.19,2.69,2.69,0,0,1-.91-.51,2.27,2.27,0,0,1-.6-.78,2.13,2.13,0,0,1-.22-1,2.14,2.14,0,0,1,.82-1.7,2.83,2.83,0,0,1,.91-.49A3.92,3.92,0,0,1,38,51.23h3.44l-1,1.24H38a1.69,1.69,0,0,0-.56.09,1.41,1.41,0,0,0-.45.25,1.16,1.16,0,0,0-.3.36,1.09,1.09,0,0,0-.1.48,1.07,1.07,0,0,0,.1.47,1.12,1.12,0,0,0,.29.36,1.37,1.37,0,0,0,.45.23,1.75,1.75,0,0,0,.57.08h1.82V54.1H37.3Z" transform="translate(-2.94 -10.45)"/><path class="cls-1" d="M48.36,53.93c0,1.45-1,2.18-3,2.18a7.22,7.22,0,0,1-1.5-.14,3,3,0,0,1-1-.41,1.6,1.6,0,0,1-.59-.68,2.15,2.15,0,0,1-.19-1v-2.7h1.47v2.7a1.17,1.17,0,0,0,.08.45.54.54,0,0,0,.27.29,1.57,1.57,0,0,0,.55.16,8,8,0,0,0,.94,0,3.63,3.63,0,0,0,.71,0,1.24,1.24,0,0,0,.46-.16.65.65,0,0,0,.25-.3,1.1,1.1,0,0,0,.08-.43v-2.7h1.49Z" transform="translate(-2.94 -10.45)"/><path class="cls-1" d="M50.71,56H49.22v-4.8h1.49Z" transform="translate(-2.94 -10.45)"/><path class="cls-1" d="M56.84,54.79l-1,1.24H51.63v-4.8h1.49v3.56Z" transform="translate(-2.94 -10.45)"/><path class="cls-1" d="M59.13,56l.9-1.24h1.65l.41,0-.24-.33-.25-.37-.86-1.27L58.48,56H56.72l3.08-4.34a1.71,1.71,0,0,1,.38-.38,1.14,1.14,0,0,1,1.15,0,1.29,1.29,0,0,1,.38.39l3,4.34Z" transform="translate(-2.94 -10.45)"/><path class="cls-1" d="M72.06,56h-2L69,54.76H66.72V56H65.23V53.57h4.18a1.06,1.06,0,0,0,.58-.14.45.45,0,0,0,.24-.4.47.47,0,0,0-.22-.42,1.11,1.11,0,0,0-.6-.14H65.23l1-1.24h3.09a5.12,5.12,0,0,1,.85.07,2.55,2.55,0,0,1,.79.27,1.65,1.65,0,0,1,.59.52,1.42,1.42,0,0,1,.24.85,1.51,1.51,0,0,1-.09.53,1.58,1.58,0,0,1-.25.46,1.62,1.62,0,0,1-.39.34,1.52,1.52,0,0,1-.53.19c.08.07.17.14.27.24l.41.4Z" transform="translate(-2.94 -10.45)"/></g><g id="LA"><polygon class="cls-1" points="42.64 0.01 28.4 33.36 21.52 33.36 16.33 27.83 27.65 0 42.64 0.01"/><polygon class="cls-1" points="33.68 33.35 39.21 19.61 48.1 19.61 52.79 33.35 43.24 33.35 33.68 33.35"/></g><path class="cls-1" d="M25.23,61.41a1.27,1.27,0,0,1,.34.05.92.92,0,0,1,.27.16.68.68,0,0,1,.18.26,1,1,0,0,1,.06.36,1.11,1.11,0,0,1-.07.43.86.86,0,0,1-.21.28.85.85,0,0,1-.3.15,1.5,1.5,0,0,1-.37,0h-.47V61.41Zm-.31,1.53h.19a1.07,1.07,0,0,0,.25,0,.61.61,0,0,0,.23-.11.58.58,0,0,0,.16-.21.88.88,0,0,0,.06-.35.67.67,0,0,0,0-.26.56.56,0,0,0-.12-.2.67.67,0,0,0-.2-.12,1.09,1.09,0,0,0-.26,0h-.26Z" transform="translate(-2.94 -10.45)"/><path class="cls-1" d="M26.43,61.41h1.05v.21h-.8v.52h.73v.21h-.73v.59h.8v.21H26.43Z" transform="translate(-2.94 -10.45)"/><path class="cls-1" d="M28.3,61.39a1,1,0,0,1,.24,0,1.09,1.09,0,0,1,.24.07l-.06.21a1.11,1.11,0,0,0-.22-.07.63.63,0,0,0-.19,0,.37.37,0,0,0-.25.07.23.23,0,0,0-.09.19A.21.21,0,0,0,28,62a.56.56,0,0,0,.22.11l.17.06a.66.66,0,0,1,.34.2.48.48,0,0,1,.09.29.45.45,0,0,1,0,.2.4.4,0,0,1-.13.16.57.57,0,0,1-.19.1.88.88,0,0,1-.24,0l-.27,0a1.43,1.43,0,0,1-.27-.09l.06-.2.23.08a1,1,0,0,0,.24,0,.41.41,0,0,0,.25-.07.23.23,0,0,0,.11-.2.3.3,0,0,0,0-.1l-.05-.08-.1-.07-.16-.06-.18-.06a.73.73,0,0,1-.29-.16.39.39,0,0,1-.1-.29.46.46,0,0,1,.15-.36A.64.64,0,0,1,28.3,61.39Z" transform="translate(-2.94 -10.45)"/><path class="cls-1" d="M29.66,61.41h.22l.69,1.74h-.26l-.19-.48h-.71l-.19.48H29Zm-.18,1.05h.57l-.12-.3-.09-.22c0-.08-.05-.15-.07-.23h0a1.43,1.43,0,0,1-.08.22c0,.07-.05.15-.09.23Z" transform="translate(-2.94 -10.45)"/><path class="cls-1" d="M30.8,61.41h.56a.86.86,0,0,1,.24,0,.42.42,0,0,1,.17.11.46.46,0,0,1,.11.16.76.76,0,0,1,0,.21.48.48,0,0,1,0,.18.39.39,0,0,1-.08.14.52.52,0,0,1-.11.1l-.13.07.45.73h-.28l-.41-.68H31v.68H30.8Zm.24.85h.21l.15,0,.13-.05a.28.28,0,0,0,.09-.1.33.33,0,0,0,0-.15.3.3,0,0,0-.09-.24.38.38,0,0,0-.27-.08H31Z" transform="translate(-2.94 -10.45)"/><path class="cls-1" d="M32.28,61.41h.56a.86.86,0,0,1,.24,0,.42.42,0,0,1,.17.11.46.46,0,0,1,.11.16.76.76,0,0,1,0,.21.48.48,0,0,1,0,.18.64.64,0,0,1-.08.14.52.52,0,0,1-.11.1l-.13.07.45.73h-.28l-.41-.68h-.28v.68h-.24Zm.24.85h.21l.15,0,.13-.05a.43.43,0,0,0,.09-.1.33.33,0,0,0,0-.15A.3.3,0,0,0,33,61.7a.4.4,0,0,0-.27-.08h-.25Z" transform="translate(-2.94 -10.45)"/><path class="cls-1" d="M34.48,61.39a1.14,1.14,0,0,1,.33,0,.9.9,0,0,1,.26.17.88.88,0,0,1,.17.28,1.14,1.14,0,0,1,.06.39.92.92,0,0,1-.07.38.7.7,0,0,1-.17.28.56.56,0,0,1-.26.17.88.88,0,0,1-.33.06,1.13,1.13,0,0,1-.32-.05.78.78,0,0,1-.26-.17.88.88,0,0,1-.17-.28,1.14,1.14,0,0,1-.06-.39,1.08,1.08,0,0,1,.06-.38.8.8,0,0,1,.18-.28.56.56,0,0,1,.26-.17A.87.87,0,0,1,34.48,61.39Zm-.54.89a1,1,0,0,0,0,.31.72.72,0,0,0,.12.21.43.43,0,0,0,.17.13.52.52,0,0,0,.21,0,.54.54,0,0,0,.22,0,.52.52,0,0,0,.17-.13,1,1,0,0,0,.11-.21,1,1,0,0,0,0-.31A.93.93,0,0,0,35,62a.53.53,0,0,0-.12-.21.52.52,0,0,0-.17-.13.54.54,0,0,0-.22,0,.78.78,0,0,0-.21,0,.52.52,0,0,0-.17.13A.7.7,0,0,0,34,62,1,1,0,0,0,33.94,62.28Z" transform="translate(-2.94 -10.45)"/><path class="cls-1" d="M35.64,61.41h.26v1.52h.74v.22h-1Z" transform="translate(-2.94 -10.45)"/><path class="cls-1" d="M36.9,61.41h.25v1.52h.74v.22h-1Z" transform="translate(-2.94 -10.45)"/><path class="cls-1" d="M38.67,61.41h.22l.69,1.74h-.26l-.19-.48h-.71l-.19.48H38Zm-.18,1.05h.57l-.12-.3c0-.08-.06-.15-.08-.22a2.09,2.09,0,0,1-.08-.23h0a1.43,1.43,0,0,1-.08.22,1.36,1.36,0,0,1-.09.23Z" transform="translate(-2.94 -10.45)"/><path class="cls-1" d="M40.37,61.41a1.16,1.16,0,0,1,.34.05.85.85,0,0,1,.28.16.78.78,0,0,1,.17.26.8.8,0,0,1,.07.36,1.1,1.1,0,0,1-.08.43.74.74,0,0,1-.21.28.71.71,0,0,1-.3.15,1.36,1.36,0,0,1-.36,0h-.47V61.41Zm-.31,1.53h.19a1.09,1.09,0,0,0,.26,0,.57.57,0,0,0,.22-.11.49.49,0,0,0,.16-.21.88.88,0,0,0,.06-.35.68.68,0,0,0,0-.26.46.46,0,0,0-.13-.2.56.56,0,0,0-.2-.12,1,1,0,0,0-.26,0h-.26Z" transform="translate(-2.94 -10.45)"/><path class="cls-1" d="M42.31,61.39a1.13,1.13,0,0,1,.32,0,.78.78,0,0,1,.26.17.88.88,0,0,1,.17.28,1.14,1.14,0,0,1,.06.39.92.92,0,0,1-.07.38.7.7,0,0,1-.17.28.56.56,0,0,1-.26.17.88.88,0,0,1-.33.06,1.13,1.13,0,0,1-.32-.05.78.78,0,0,1-.26-.17.88.88,0,0,1-.17-.28,1.14,1.14,0,0,1-.06-.39.89.89,0,0,1,.07-.38.78.78,0,0,1,.17-.28.56.56,0,0,1,.26-.17A.88.88,0,0,1,42.31,61.39Zm-.55.89a1,1,0,0,0,0,.31.72.72,0,0,0,.12.21.52.52,0,0,0,.17.13.54.54,0,0,0,.22,0,.52.52,0,0,0,.21,0,.52.52,0,0,0,.17-.13.7.7,0,0,0,.11-.21,1,1,0,0,0,0-.31.93.93,0,0,0,0-.31.53.53,0,0,0-.12-.21.43.43,0,0,0-.17-.13.54.54,0,0,0-.22,0,.78.78,0,0,0-.21,0,.52.52,0,0,0-.17.13.7.7,0,0,0-.11.21A1,1,0,0,0,41.76,62.28Z" transform="translate(-2.94 -10.45)"/><path class="cls-1" d="M43.47,61.41H44a.86.86,0,0,1,.24,0,.5.5,0,0,1,.17.11.34.34,0,0,1,.1.16.52.52,0,0,1,0,.21.48.48,0,0,1,0,.18.64.64,0,0,1-.08.14.52.52,0,0,1-.11.1l-.13.07.45.73H44.4L44,62.47h-.28v.68h-.24Zm.24.85h.2l.16,0,.13-.05a.43.43,0,0,0,.09-.1.33.33,0,0,0,0-.15.27.27,0,0,0-.1-.24.35.35,0,0,0-.26-.08h-.25Z" transform="translate(-2.94 -10.45)"/><path class="cls-1" d="M45.62,61.41l.29,1a.24.24,0,0,1,0,.09l0,.11a.36.36,0,0,1,0,.11.44.44,0,0,1,0,.1h0a.44.44,0,0,1,0-.1l0-.11,0-.11a.29.29,0,0,0,0-.09l.31-1h.22l.32,1a.29.29,0,0,0,0,.09.36.36,0,0,1,0,.1l0,.12s0,.07,0,.1h0l0-.11,0-.11,0-.1s0-.06,0-.09l.28-1h.26l-.51,1.74h-.26l-.26-.93s0-.08,0-.12,0-.08,0-.12l0-.11,0-.12h0l-.06.25c0,.08,0,.16-.06.22l-.26.93h-.25l-.52-1.74Z" transform="translate(-2.94 -10.45)"/><path class="cls-1" d="M47.92,61.41h1v.21h-.8v.52h.73v.21h-.73v.59H49v.21H47.92Z" transform="translate(-2.94 -10.45)"/><path class="cls-1" d="M49.82,61.41a.66.66,0,0,1,.4.11.4.4,0,0,1,.15.33.33.33,0,0,1-.09.25.46.46,0,0,1-.23.12.66.66,0,0,1,.15.05l.11.09a.35.35,0,0,1,.08.13.47.47,0,0,1,0,.17.35.35,0,0,1-.05.2.44.44,0,0,1-.12.15.63.63,0,0,1-.2.1.69.69,0,0,1-.25,0h-.5V61.41Zm-.27.73h.34l.11-.05a.16.16,0,0,0,.08-.08.25.25,0,0,0,0-.13.21.21,0,0,0-.09-.19.43.43,0,0,0-.24-.06h-.23Zm0,.8h.37a.33.33,0,0,0,.12,0,.43.43,0,0,0,.09-.1.29.29,0,0,0,0-.14.26.26,0,0,0,0-.14.47.47,0,0,0-.1-.1.46.46,0,0,0-.14,0h-.33Z" transform="translate(-2.94 -10.45)"/></svg>