<svg id="Capa_5" data-name="Capa 5" xmlns="http://www.w3.org/2000/svg" xmlns:xlink="http://www.w3.org/1999/xlink" viewBox="0 0 300 169"><defs><style>.cls-1{fill:none;}.cls-2{clip-path:url(#clip-path);}.cls-3{fill:#575756;}.cls-4{fill:#545353;}.cls-5{fill:#50504f;}.cls-6{fill:#4d4d4c;}.cls-7{fill:#4a4a49;}.cls-8{fill:#474746;}.cls-9{fill:#444443;}.cls-10{fill:#414140;}.cls-11{fill:#3f3f3e;}.cls-12{fill:#3d3c3c;}.cls-13{fill:#3b3a39;}.cls-14{fill:#383837;}.cls-15{fill:#373635;}.cls-16{fill:#353434;}.cls-17{fill:#333332;}.cls-18{fill:#323130;}.cls-19{fill:#30302f;}.cls-20{fill:#2f2e2d;}.cls-21{fill:#2d2d2c;}.cls-22{fill:#2c2c2b;}.cls-23{fill:#2b2b2a;}.cls-24{fill:#2a2a29;}.cls-25{fill:#292928;}.cls-26{fill:#292827;}.cls-27{fill:#282827;}.cls-28{fill:#272726;}.cls-29{fill:#262625;}.cls-30{fill:#262524;}.cls-31{fill:#252524;}.cls-32{fill:#252523;}.cls-33{fill:#252423;}.cls-34{fill:#242423;}.cls-35{fill:#272725;}.cls-36{fill:#2a2a28;}.cls-37{fill:#2f2f2e;}.cls-38{fill:#323231;}.cls-39{fill:#343433;}.cls-40{fill:#393938;}.cls-41{fill:#3c3c3b;}.cls-42{fill:#424241;}.cls-43{fill:#464545;}.cls-44{fill:#4a4948;}.cls-45{fill:#4e4e4d;}.cls-46{fill:#525251;}.cls-47{fill:#fff;}</style><clipPath id="clip-path" transform="translate(0 0)"><rect class="cls-1" width="300" height="169"/></clipPath></defs><g class="cls-2"><polygon class="cls-3" points="300 4.31 297.64 0 300 0 300 4.31"/><polygon class="cls-3" points="300 12 293.42 0 297.64 0 300 4.31 300 12"/><polygon class="cls-4" points="300 19.69 289.19 0 293.42 0 300 12 300 19.69"/><polygon class="cls-5" points="300 27.38 284.97 0 289.19 0 300 19.69 300 27.38"/><polygon class="cls-6" points="300 35.07 280.75 0 284.97 0 300 27.38 300 35.07"/><polygon class="cls-7" points="300 42.76 276.53 0 280.75 0 300 35.07 300 42.76"/><polygon class="cls-8" points="300 50.45 272.31 0 276.53 0 300 42.76 300 50.45"/><polygon class="cls-9" points="300 58.13 268.09 0 272.31 0 300 50.45 300 58.13"/><polygon class="cls-10" points="300 65.83 263.87 0 268.09 0 300 58.13 300 65.83"/><polygon class="cls-11" points="300 73.52 259.64 0 263.87 0 300 65.83 300 73.52"/><polygon class="cls-12" points="300 81.2 255.42 0 259.64 0 300 73.52 300 81.2"/><polygon class="cls-13" points="300 88.89 251.2 0 255.42 0 300 81.2 300 88.89"/><polygon class="cls-14" points="300 96.58 246.98 0 251.2 0 300 88.89 300 96.58"/><polygon class="cls-15" points="300 104.28 242.76 0 246.98 0 300 96.58 300 104.28"/><polygon class="cls-16" points="300 111.97 238.54 0 242.76 0 300 104.28 300 111.97"/><polygon class="cls-17" points="300 119.66 234.31 0 238.54 0 300 111.97 300 119.66"/><polygon class="cls-18" points="300 127.34 230.09 0 234.31 0 300 119.66 300 127.34"/><polygon class="cls-19" points="300 135.03 225.87 0 230.09 0 300 127.34 300 135.03"/><polygon class="cls-20" points="300 142.72 221.65 0 225.87 0 300 135.03 300 142.72"/><polygon class="cls-21" points="300 150.41 217.43 0 221.65 0 300 142.72 300 150.41"/><polygon class="cls-22" points="300 158.1 213.21 0 217.43 0 300 150.41 300 158.1"/><polygon class="cls-23" points="300 165.79 208.99 0 213.21 0 300 158.1 300 165.79"/><polygon class="cls-24" points="297.54 169 204.77 0 208.99 0 300 165.79 300 169 297.54 169"/><polygon class="cls-25" points="293.32 169 200.54 0 204.77 0 297.54 169 293.32 169"/><polygon class="cls-26" points="289.1 169 196.32 0 200.54 0 293.32 169 289.1 169"/><polygon class="cls-27" points="284.87 169 192.1 0 196.32 0 289.1 169 284.87 169"/><polygon class="cls-28" points="280.65 169 187.88 0 192.1 0 284.87 169 280.65 169"/><polygon class="cls-28" points="276.43 169 183.66 0 187.88 0 280.65 169 276.43 169"/><polygon class="cls-29" points="272.21 169 179.44 0 183.66 0 276.43 169 272.21 169"/><polygon class="cls-29" points="267.99 169 175.22 0 179.44 0 272.21 169 267.99 169"/><polygon class="cls-30" points="263.77 169 171 0 175.22 0 267.99 169 263.77 169"/><polygon class="cls-31" points="259.55 169 166.77 0 171 0 263.77 169 259.55 169"/><polygon class="cls-31" points="255.32 169 162.55 0 166.77 0 259.55 169 255.32 169"/><polygon class="cls-32" points="251.1 169 158.33 0 162.55 0 255.32 169 251.1 169"/><polygon class="cls-33" points="246.88 169 154.11 0 158.33 0 251.1 169 246.88 169"/><polygon class="cls-33" points="242.66 169 149.89 0 154.11 0 246.88 169 242.66 169"/><polygon class="cls-34" points="238.44 169 145.67 0 149.89 0 242.66 169 238.44 169"/><polygon class="cls-34" points="234.22 169 141.44 0 145.67 0 238.44 169 234.22 169"/><polygon class="cls-34" points="230 169 137.22 0 141.44 0 234.22 169 230 169"/><polygon class="cls-34" points="225.78 169 133 0 137.22 0 230 169 225.78 169"/><polygon class="cls-34" points="221.55 169 128.78 0 133 0 225.78 169 221.55 169"/><polygon class="cls-34" points="217.33 169 124.56 0 128.78 0 221.55 169 217.33 169"/><polygon class="cls-34" points="213.11 169 120.34 0 124.56 0 217.33 169 213.11 169"/><polygon class="cls-34" points="208.89 169 116.12 0 120.34 0 213.11 169 208.89 169"/><polygon class="cls-34" points="204.67 169 111.89 0 116.12 0 208.89 169 204.67 169"/><polygon class="cls-34" points="200.45 169 107.67 0 111.89 0 204.67 169 200.45 169"/><polygon class="cls-34" points="196.22 169 103.45 0 107.67 0 200.45 169 196.22 169"/><polygon class="cls-34" points="192 169 99.23 0 103.45 0 196.22 169 192 169"/><polygon class="cls-34" points="187.78 169 95.01 0 99.23 0 192 169 187.78 169"/><polygon class="cls-34" points="183.56 169 90.79 0 95.01 0 187.78 169 183.56 169"/><polygon class="cls-34" points="179.34 169 86.57 0 90.79 0 183.56 169 179.34 169"/><polygon class="cls-34" points="175.12 169 82.35 0 86.57 0 179.34 169 175.12 169"/><polygon class="cls-34" points="170.9 169 78.12 0 82.35 0 175.12 169 170.9 169"/><polygon class="cls-34" points="166.68 169 73.9 0 78.12 0 170.9 169 166.68 169"/><polygon class="cls-34" points="162.45 169 69.68 0 73.9 0 166.68 169 162.45 169"/><polygon class="cls-34" points="158.23 169 65.46 0 69.68 0 162.45 169 158.23 169"/><polygon class="cls-34" points="154.01 169 61.24 0 65.46 0 158.23 169 154.01 169"/><polygon class="cls-34" points="149.79 169 57.02 0 61.24 0 154.01 169 149.79 169"/><polygon class="cls-34" points="145.57 169 52.8 0 57.02 0 149.79 169 145.57 169"/><polygon class="cls-34" points="141.35 169 48.58 0 52.8 0 145.57 169 141.35 169"/><polygon class="cls-34" points="137.13 169 44.35 0 48.58 0 141.35 169 137.13 169"/><polygon class="cls-34" points="132.91 169 40.13 0 44.35 0 137.13 169 132.91 169"/><polygon class="cls-34" points="128.68 169 35.91 0 40.13 0 132.91 169 128.68 169"/><polygon class="cls-33" points="124.46 169 31.69 0 35.91 0 128.68 169 124.46 169"/><polygon class="cls-33" points="120.24 169 27.47 0 31.69 0 124.46 169 120.24 169"/><polygon class="cls-32" points="116.02 169 23.25 0 27.47 0 120.24 169 116.02 169"/><polygon class="cls-31" points="111.8 169 19.02 0 23.25 0 116.02 169 111.8 169"/><polygon class="cls-31" points="107.58 169 14.8 0 19.02 0 111.8 169 107.58 169"/><polygon class="cls-30" points="103.36 169 10.58 0 14.8 0 107.58 169 103.36 169"/><polygon class="cls-29" points="99.13 169 6.36 0 10.58 0 103.36 169 99.13 169"/><polygon class="cls-29" points="94.91 169 2.14 0 6.36 0 99.13 169 94.91 169"/><polygon class="cls-35" points="90.69 169 0 3.79 0 0 2.14 0 94.91 169 90.69 169"/><polygon class="cls-28" points="86.47 169 0 11.48 0 3.79 90.69 169 86.47 169"/><polygon class="cls-27" points="82.25 169 0 19.17 0 11.48 86.47 169 82.25 169"/><polygon class="cls-25" points="78.03 169 0 26.86 0 19.17 82.25 169 78.03 169"/><polygon class="cls-36" points="73.81 169 0 34.55 0 26.86 78.03 169 73.81 169"/><polygon class="cls-23" points="69.58 169 0 42.24 0 34.55 73.81 169 69.58 169"/><polygon class="cls-22" points="65.36 169 0 49.93 0 42.24 69.58 169 65.36 169"/><polygon class="cls-21" points="61.14 169 0 57.62 0 49.93 65.36 169 61.14 169"/><polygon class="cls-37" points="56.92 169 0 65.31 0 57.62 61.14 169 56.92 169"/><polygon class="cls-19" points="52.7 169 0 73 0 65.31 56.92 169 52.7 169"/><polygon class="cls-38" points="48.48 169 0 80.69 0 73 52.7 169 48.48 169"/><polygon class="cls-39" points="44.26 169 0 88.38 0 80.69 48.48 169 44.26 169"/><polygon class="cls-15" points="40.03 169 0 96.07 0 88.38 44.26 169 40.03 169"/><polygon class="cls-40" points="35.81 169 0 103.76 0 96.07 40.03 169 35.81 169"/><polygon class="cls-41" points="31.59 169 0 111.45 0 103.76 35.81 169 31.59 169"/><polygon class="cls-11" points="27.37 169 0 119.14 0 111.45 31.59 169 27.37 169"/><polygon class="cls-42" points="23.15 169 0 126.83 0 119.14 27.37 169 23.15 169"/><polygon class="cls-43" points="18.93 169 0 134.52 0 126.83 23.15 169 18.93 169"/><polygon class="cls-44" points="14.71 169 0 142.21 0 134.52 18.93 169 14.71 169"/><polygon class="cls-45" points="10.48 169 0 149.9 0 142.21 14.71 169 10.48 169"/><polygon class="cls-46" points="6.26 169 0 157.59 0 149.9 10.48 169 6.26 169"/><polygon class="cls-3" points="2.04 169 0 165.28 0 157.59 6.26 169 2.04 169"/><polygon class="cls-3" points="0 165.28 2.04 169 0 169 0 165.28"/></g><path class="cls-47" d="M245.24,7.56h1l-.82,4.22h2.16l-.18.88h-3.16Z" transform="translate(0 0)"/><path class="cls-47" d="M249.89,12.76a1.71,1.71,0,0,1-1.14-.34,1,1,0,0,1-.31-.41,1.6,1.6,0,0,1-.1-.56c0-.08,0-.18,0-.3s0-.14,0-.19a.82.82,0,0,1,0-.18l.63-3.22h1L249.38,11v0a1.29,1.29,0,0,0,0,.25.54.54,0,0,0,.16.42.61.61,0,0,0,.45.16.84.84,0,0,0,.58-.21,1.17,1.17,0,0,0,.31-.64l.68-3.47h1l-.63,3.22c0,.19-.08.37-.12.51a4.13,4.13,0,0,1-.14.42,1.55,1.55,0,0,1-.36.53,1.6,1.6,0,0,1-.61.39A2.15,2.15,0,0,1,249.89,12.76Z" transform="translate(0 0)"/><path class="cls-47" d="M252.67,11.78h1l.64-3.33h-1l.18-.89h3l-.18.89h-1l-.65,3.33h1l-.18.88h-3Z" transform="translate(0 0)"/><path class="cls-47" d="M258.22,12.76a2.55,2.55,0,0,1-.39,0,2.79,2.79,0,0,1-.38-.07,4.9,4.9,0,0,1-.82-.27l.2-1a2.37,2.37,0,0,0,.7.42,1.75,1.75,0,0,0,.35.11,1.55,1.55,0,0,0,.37,0,1.18,1.18,0,0,0,.72-.2.64.64,0,0,0,.26-.53.58.58,0,0,0-.12-.38.83.83,0,0,0-.36-.25l-.4-.18a4.15,4.15,0,0,1-.55-.26,1.47,1.47,0,0,1-.32-.27.85.85,0,0,1-.16-.28,1.53,1.53,0,0,1-.05-.41,1.64,1.64,0,0,1,.15-.71,1.58,1.58,0,0,1,.4-.52,1.93,1.93,0,0,1,.63-.35,2.53,2.53,0,0,1,.8-.12,3.21,3.21,0,0,1,1.33.28l-.2,1a1.46,1.46,0,0,0-.54-.32l-.33-.08a1.94,1.94,0,0,0-.34,0,1.22,1.22,0,0,0-.4,0,.77.77,0,0,0-.27.14.69.69,0,0,0-.2.22.53.53,0,0,0-.06.24q0,.33.63.6h0l.4.18a1.71,1.71,0,0,1,.73.53,1.31,1.31,0,0,1,.23.78,1.72,1.72,0,0,1-.13.68,1.36,1.36,0,0,1-.42.56,1.65,1.65,0,0,1-.64.35A2.75,2.75,0,0,1,258.22,12.76Z" transform="translate(0 0)"/><path class="cls-47" d="M267,7.56h1.23l.38,5.1h-1l0-1.26h-1.36l-.56,1.26h-1Zm.53,3L267.5,8.5l-.9,2.07Z" transform="translate(0 0)"/><path class="cls-47" d="M271.35,12.76a1.9,1.9,0,0,1-.75-.13,1.42,1.42,0,0,1-.54-.36,1.62,1.62,0,0,1-.34-.62,2.79,2.79,0,0,1-.11-.79,4.41,4.41,0,0,1,.06-.7,4,4,0,0,1,.19-.74,4.27,4.27,0,0,1,.27-.63,3,3,0,0,1,.39-.55,2.61,2.61,0,0,1,.34-.32,2.34,2.34,0,0,1,.43-.26,2.4,2.4,0,0,1,1-.19,2.57,2.57,0,0,1,.55.06l.25.07.28.11-.23,1.13a1,1,0,0,0-.41-.35,1.13,1.13,0,0,0-.51-.12l-.25,0a1,1,0,0,0-.21.08l-.2.11a1.62,1.62,0,0,0-.2.18l-.14.18-.12.2c0,.07-.07.14-.11.22a2.56,2.56,0,0,0-.09.26,4.05,4.05,0,0,0-.17.64,3.45,3.45,0,0,0-.06.58,1.58,1.58,0,0,0,.06.47,1.06,1.06,0,0,0,.16.3.73.73,0,0,0,.27.2,1,1,0,0,0,.35.07.85.85,0,0,0,.23,0l.08,0a.33.33,0,0,0,.1-.06l.2-1h-.71l.17-.85h1.57l-.47,2.42a1.54,1.54,0,0,1-.58.31A2.17,2.17,0,0,1,271.35,12.76Z" transform="translate(0 0)"/><path class="cls-47" d="M275.17,12.76a1.71,1.71,0,0,1-1.14-.34.93.93,0,0,1-.3-.41,1.4,1.4,0,0,1-.1-.56c0-.08,0-.18,0-.3a1.76,1.76,0,0,0,0-.19s0-.1,0-.18l.63-3.22h1L274.67,11v0c0,.1,0,.18,0,.25a.57.57,0,0,0,.15.42.66.66,0,0,0,.46.16.86.86,0,0,0,.58-.21,1.1,1.1,0,0,0,.3-.64l.69-3.47h1l-.63,3.22-.11.51a2.6,2.6,0,0,1-.15.42,1.4,1.4,0,0,1-.35.53,1.68,1.68,0,0,1-.61.39A2.17,2.17,0,0,1,275.17,12.76Z" transform="translate(0 0)"/><path class="cls-47" d="M278,11.78h1l.64-3.33h-1l.17-.89h3l-.17.89h-1L280,11.78h1l-.18.88h-3Z" transform="translate(0 0)"/><path class="cls-47" d="M283.17,7.56h1l-.82,4.22h2.16l-.18.88h-3.16Z" transform="translate(0 0)"/><path class="cls-47" d="M288.11,7.56h1.23l.38,5.1h-1l0-1.26h-1.37l-.56,1.26h-1Zm.53,3-.07-2.07-.9,2.07Z" transform="translate(0 0)"/><path class="cls-47" d="M291.34,7.56h1.4a1.92,1.92,0,0,1,1.18.3,1,1,0,0,1,.28.37,1.52,1.52,0,0,1,.1.56,1.47,1.47,0,0,1-.34,1,1.36,1.36,0,0,1-.95.45.57.57,0,0,1,.32.16,1,1,0,0,1,.21.42l.56,1.83h-1l-.36-1.28,0-.09a1.38,1.38,0,0,0-.23-.5.41.41,0,0,0-.31-.14h-.39l-.4,2h-1Zm1,2.24a1,1,0,0,0,.7-.22.64.64,0,0,0,.18-.27,1,1,0,0,0,.06-.35.48.48,0,0,0-.16-.42.71.71,0,0,0-.47-.13h-.45l-.28,1.39Z" transform="translate(0 0)"/><path class="cls-47" d="M85.84,89.13V73.53H88v15.6Zm1.3-7.67V80.39h4.57v1.07Zm.74-.61v-1h2.64a3,3,0,0,0,1.93-.56,1.91,1.91,0,0,0,.68-1.58,1.81,1.81,0,0,0-.71-1.55,3.38,3.38,0,0,0-2-.54H87.93l-.27-2.09h2.82a5.77,5.77,0,0,1,3.67,1,3.52,3.52,0,0,1,1.29,2.93A2.86,2.86,0,0,1,94.21,80a5.9,5.9,0,0,1-3.49.88Zm0,8.28V87h3.3a3.43,3.43,0,0,0,2.25-.66,2.27,2.27,0,0,0,.8-1.86,2.31,2.31,0,0,0-.83-1.91A3.7,3.7,0,0,0,91,81.93h-3.1l-.27-1h3.91a5.79,5.79,0,0,1,3.67,1,3.45,3.45,0,0,1,1.3,2.89A4.06,4.06,0,0,1,95.31,88a5,5,0,0,1-3.49,1.12Z" transform="translate(0 0)"/><path class="cls-47" d="M91.82,89.38H85.59V73.28h4.89a6,6,0,0,1,3.82,1.08,3.78,3.78,0,0,1,1.39,3.13,3.13,3.13,0,0,1-1.33,2.69,4.54,4.54,0,0,1-1.31.62,5.12,5.12,0,0,1,2.35,1,3.74,3.74,0,0,1,1.39,3.09,4.29,4.29,0,0,1-1.31,3.34A5.27,5.27,0,0,1,91.82,89.38Zm-3.53-.5h3.53a4.79,4.79,0,0,0,3.32-1,3.86,3.86,0,0,0,1.15-3,3.21,3.21,0,0,0-1.2-2.7,5.36,5.36,0,0,0-3.13-1v.52h-.33a3.52,3.52,0,0,1,1.93.71,2.83,2.83,0,0,1,0,4.15,3.69,3.69,0,0,1-2.41.72H88.29Zm-2.2,0h1.54V86.79h.16V82.18h-.06l-.12-.47h-.72V80.14h.74V79.6h.16V75.87h-.08l-.27-2.09H86.09Zm2.2-2.09h2.89a3.21,3.21,0,0,0,2.09-.6A2,2,0,0,0,94,84.52a2.08,2.08,0,0,0-.74-1.72A3.46,3.46,0,0,0,91,82.18H88.29Zm0-5.58,3.17,0Zm-.9,0h.09l-.09-.35Zm0-.52h.24v0h-.24Zm.9-.55H92v.38a4.79,4.79,0,0,0,2.11-.75,2.62,2.62,0,0,0,1.12-2.28A3.26,3.26,0,0,0,94,74.75a5.6,5.6,0,0,0-3.51-1H88.29v1.59h2.08a3.61,3.61,0,0,1,2.19.59,2,2,0,0,1,.82,1.75,2.19,2.19,0,0,1-.77,1.78,3.31,3.31,0,0,1-2.09.61H88.29Zm0-.54h2.23a2.76,2.76,0,0,0,1.77-.5,1.66,1.66,0,0,0,.59-1.39,1.57,1.57,0,0,0-.61-1.35,3.14,3.14,0,0,0-1.9-.49H88.29Z" transform="translate(0 0)"/><path class="cls-47" d="M99.11,75.62V73.53h9.49v2.09Zm0,13.51V87h9.49v2.09Zm3.64,0V73.53H105v15.6Z" transform="translate(0 0)"/><path class="cls-47" d="M108.85,89.38h-10V86.79h3.64V75.87H98.86V73.28h10v2.59H105.2V86.79h3.65Zm-3.65-.5h3.15V87.29H105.2Zm-2.2,0h1.7V87.29H103Zm-3.64,0h3.14V87.29H99.36ZM103,86.79h1.7V75.87H103Zm2.2-11.42h3.15V73.78H105.2Zm-2.2,0h1.7V73.78H103Zm-3.64,0h3.14V73.78H99.36Z" transform="translate(0 0)"/><path class="cls-47" d="M112.21,89.13V73.53h2.19v15.6Zm0-13.51V73.53h10.32v2.09Zm0,6.74V80.28h8.35v2.08Zm0,6.77V87h10.32v2.09Z" transform="translate(0 0)"/><path class="cls-47" d="M122.78,89.38H112V73.28h10.82v2.59h-8.13V80h6.16v2.58h-6.16v4.18h8.13Zm-8.13-.5h7.63V87.29h-7.63Zm-2.19,0h1.69V87.29h-1.69Zm0-2.09h1.69V82.61h-1.69Zm2.19-4.68h5.66V80.53h-5.66Zm-2.19,0h1.69V80.53h-1.69Zm0-2.08h1.69V75.87h-1.69Zm2.19-4.66h7.63V73.78h-7.63Zm-2.19,0h1.69V73.78h-1.69Z" transform="translate(0 0)"/><path class="cls-47" d="M125.26,89.13V73.53h2.11v15.6Zm7.16,0-4.83-11.86h-1V73.53H128l4.83,11.87h.55v3.73Zm.66,0V73.53h2.11v15.6Z" transform="translate(0 0)"/><path class="cls-47" d="M135.44,89.38h-3.19L127.62,78V89.38H125V73.28h3.19l4.63,11.38V73.28h2.61Zm-1.78-.5h1.28V73.78h-1.61V85.15h.33Zm-1.07,0h.24V85.65h-.14l-4.83-11.87h-.24V77h.14Zm-7.08,0h1.61V77.52h-.79V73.78h-.82ZM126.83,77h.29V73.78h-.29Z" transform="translate(0 0)"/><path class="cls-47" d="M141.71,89.13l-4.4-15.6h2.35l3.65,13.73h.2l3.64-13.73h2.36l-4.4,15.6Z" transform="translate(0 0)"/><path class="cls-47" d="M145.3,89.38h-3.78L137,73.28h2.87l3.56,13.38L147,73.28h2.88Zm-3.41-.5h3l4.26-15.1h-1.83L143.7,87.51h-.58l-3.65-13.73h-1.83Z" transform="translate(0 0)"/><path class="cls-47" d="M151.76,89.13V73.53H154v15.6Zm0-13.51V73.53h10.32v2.09Zm0,6.74V80.28h8.35v2.08Zm0,6.77V87h10.32v2.09Z" transform="translate(0 0)"/><path class="cls-47" d="M162.33,89.38H151.51V73.28h10.82v2.59h-8.12V80h6.15v2.58h-6.15v4.18h8.12Zm-8.12-.5h7.62V87.29h-7.62Zm-2.2,0h1.7V87.29H152Zm0-2.09h1.7V82.61H152Zm2.2-4.68h5.65V80.53h-5.65Zm-2.2,0h1.7V80.53H152ZM152,80h1.7V75.87H152Zm2.2-4.66h7.62V73.78h-7.62Zm-2.2,0h1.7V73.78H152Z" transform="translate(0 0)"/><path class="cls-47" d="M164.81,89.13V73.53h2.11v15.6Zm7.16,0-4.83-11.86h-1V73.53h1.45l4.83,11.87H173v3.73Zm.66,0V73.53h2.11v15.6Z" transform="translate(0 0)"/><path class="cls-47" d="M175,89.38H171.8L167.17,78V89.38h-2.61V73.28h3.19l4.63,11.38V73.28H175Zm-1.78-.5h1.28V73.78h-1.61V85.15h.33Zm-1.07,0h.24V85.65h-.14l-4.83-11.87h-.24V77h.14Zm-7.08,0h1.61V77.52h-.79V73.78h-.82ZM166.38,77h.29V73.78h-.29Z" transform="translate(0 0)"/><path class="cls-47" d="M178.21,75.62V73.53h9.5v2.09Zm0,13.51V87h9.5v2.09Zm3.64,0V73.53h2.2v15.6Z" transform="translate(0 0)"/><path class="cls-47" d="M188,89.38H178V86.79h3.64V75.87H178V73.28h10v2.59H184.3V86.79H188Zm-3.66-.5h3.16V87.29H184.3Zm-2.2,0h1.7V87.29h-1.7Zm-3.64,0h3.14V87.29h-3.14Zm3.64-2.09h1.7V75.87h-1.7Zm2.2-11.42h3.16V73.78H184.3Zm-2.2,0h1.7V73.78h-1.7Zm-3.64,0h3.14V73.78h-3.14Z" transform="translate(0 0)"/><path class="cls-47" d="M191.09,89.13V73.53h2.2v15.6Zm2,0V87h1.74a4.57,4.57,0,0,0,3.62-1.37,6.07,6.07,0,0,0,1.21-4.12,6.89,6.89,0,0,0-1.21-4.45,4.41,4.41,0,0,0-3.62-1.48h-1.69l-.27-2.09h2q7.14,0,7.14,8,0,7.58-7.14,7.58Z" transform="translate(0 0)"/><path class="cls-47" d="M194.87,89.38h-4V73.28h4c4.9,0,7.39,2.78,7.39,8.27C202.26,86.75,199.77,89.38,194.87,89.38Zm-1.33-.5h1.33c4.64,0,6.89-2.4,6.89-7.33,0-5.23-2.25-7.77-6.89-7.77h-1.33v1.59h1.33a4.66,4.66,0,0,1,3.81,1.57A7.18,7.18,0,0,1,200,81.55a6.37,6.37,0,0,1-1.27,4.29,4.87,4.87,0,0,1-3.81,1.45h-1.33Zm-2.2,0h1.54V86.79H193V75.87H193l-.27-2.09h-1.35Zm2.2-2.09h1.33a4.35,4.35,0,0,0,3.43-1.29,5.86,5.86,0,0,0,1.15-4,6.71,6.71,0,0,0-1.16-4.3,4.17,4.17,0,0,0-3.42-1.38h-1.33Z" transform="translate(0 0)"/><path class="cls-47" d="M203.23,89.13l4.5-15.6h3.19l4.5,15.6h-2.3l-3.7-13.71h-.19l-3.69,13.71Zm2.09-3.8V83.24h7.91v2.09Z" transform="translate(0 0)"/><path class="cls-47" d="M215.76,89.38h-2.84l-1-3.8h-5.15l-1,3.8H202.9l4.64-16.1h3.57l0,.18Zm-2.45-.5h1.78l-1.61-5.59v2.29h-1.06Zm-9.75,0h1.78l.89-3.3h-1.16V83.67Zm8.72-3.8h.7V83.49h-1.12Zm-5.39,0h4.88l-.43-1.59h-4Zm-1.32,0h.8l.42-1.59h-1.22ZM211.72,83h1.67l-2.66-9.21h-2.81L205.26,83h1.67L209,75.17h.58Zm-4.27,0h3.76l-1.88-7Z" transform="translate(0 0)"/><polygon class="cls-47" points="105.86 128.22 62.15 128.22 62.15 40.78 105.86 40.78 105.86 42.78 64.15 42.78 64.15 126.22 105.86 126.22 105.86 128.22"/><polygon class="cls-47" points="237.85 128.22 194.14 128.22 194.14 126.22 235.85 126.22 235.85 42.78 194.14 42.78 194.14 40.78 237.85 40.78 237.85 128.22"/></svg>